<?xml version="1.0" encoding="utf-8"?>
<!-- Generator: Adobe Illustrator 24.3.0, SVG Export Plug-In . SVG Version: 6.00 Build 0)  -->
<svg version="1.1" id="图层_1" xmlns="http://www.w3.org/2000/svg" xmlns:xlink="http://www.w3.org/1999/xlink" x="0px" y="0px"
	 viewBox="0 0 66.5 48" style="enable-background:new 0 0 66.5 48;" xml:space="preserve">
<style type="text/css">
	.st0{fill:#1677FF;}
	.st1{fill:#FFFFFF;}
</style>
<path class="st0" d="M63,0H3.5C1.6,0,0,1.6,0,3.5v41C0,46.4,1.6,48,3.5,48H63c1.9,0,3.5-1.6,3.5-3.5v-41C66.5,1.6,64.9,0,63,0z"/>
<path class="st1" d="M52.1,27.4H11.9l2.5-4c1-1.7,2.9-2.7,5-2.7h40.2l-2.5,4C56.1,26.3,54.2,27.4,52.1,27.4z"/>
<path class="st1" d="M50.2,16H19.1l1.2-1.7c0.5-0.8,1.4-1.2,2.4-1.2h31.1l-1.1,1.7C52.1,15.5,51.2,16,50.2,16z"/>
<path class="st1" d="M38,35H6.8L8,33.3c0.5-0.8,1.4-1.2,2.4-1.2h31.1l-1.1,1.7C39.9,34.5,39,35,38,35z"/>
</svg>
